<svg width="24" height="19" viewBox="0 0 24 19" fill="none" xmlns="http://www.w3.org/2000/svg">
<path d="M20.3468 1.52819C18.7822 0.812611 17.1206 0.291083 15.3862 0C15.1679 0.375986 14.9253 0.885377 14.7555 1.28562C12.9108 1.01879 11.0793 1.01879 9.26006 1.28562C9.09025 0.885377 8.83554 0.375986 8.62935 0C6.88287 0.291083 5.22126 0.812611 3.66761 1.52819C0.526326 6.16127 -0.322673 10.6852 0.101825 15.1485C2.18793 16.6645 4.20128 17.5863 6.17944 18.1928C6.66458 17.5378 7.10121 16.8343 7.4772 16.0945C6.76161 15.8277 6.08242 15.5002 5.42748 15.1121C5.59727 14.9909 5.76708 14.8574 5.92475 14.724C9.87864 16.5312 14.1612 16.5312 18.0666 14.724C18.2364 14.8574 18.3941 14.9909 18.5639 15.1121C17.9089 15.5002 17.2297 15.8277 16.5141 16.0945C16.8901 16.8343 17.3268 17.5378 17.8119 18.1928C19.7888 17.5863 21.8143 16.6645 23.8895 15.1485C24.4109 9.98178 23.0635 5.49425 20.3468 1.52819ZM8.02297 12.3953C6.83436 12.3953 5.86408 11.3159 5.86408 9.99391C5.86408 8.67192 6.81011 7.59243 8.02297 7.59243C9.22367 7.59243 10.2061 8.67192 10.1818 9.99391C10.1818 11.3159 9.22367 12.3953 8.02297 12.3953ZM15.9926 12.3953C14.804 12.3953 13.8325 11.3159 13.8325 9.99391C13.8325 8.67192 14.7797 7.59243 15.9926 7.59243C17.1934 7.59243 18.1757 8.67192 18.1515 9.99391C18.1515 11.3159 17.2055 12.3953 15.9926 12.3953Z" fill="#E0ECFF" fill-opacity="0.8"/>
</svg>
