<svg width="28" height="28" viewBox="0 0 28 28" fill="none" xmlns="http://www.w3.org/2000/svg">
<path d="M14.0001 0.556152C6.54427 0.556152 0.5 6.60042 0.5 14.0562C0.5 20.7432 5.36704 26.2812 11.7485 27.3536V16.8727H8.49192V13.1011H11.7485V10.32C11.7485 7.09321 13.7194 5.33478 16.5983 5.33478C17.9772 5.33478 19.1622 5.43753 19.5061 5.48278V8.85567L17.5094 8.85664C15.944 8.85664 15.6422 9.60033 15.6422 10.692V13.0992H19.3773L18.8902 16.8708H15.6422V27.4437C22.3217 26.6308 27.5 20.9518 27.5 14.0524C27.5 6.60042 21.4557 0.556152 14.0001 0.556152Z" fill="#E0ECFF" fill-opacity="0.8"/>
</svg>
