<svg width="28" height="28" viewBox="0 0 28 28" fill="none" xmlns="http://www.w3.org/2000/svg">
<path d="M14 0.5C6.5453 0.5 0.5 6.5453 0.5 14C0.5 21.4547 6.5453 27.5 14 27.5C21.4547 27.5 27.5 21.4547 27.5 14C27.5 6.5453 21.4547 0.5 14 0.5ZM10.0771 20.9082H6.78919V11.0166H10.0771V20.9082ZM8.43323 9.66589H8.4118C7.3085 9.66589 6.59494 8.90639 6.59494 7.95718C6.59494 6.98653 7.33034 6.24805 8.45506 6.24805C9.57979 6.24805 10.2719 6.98653 10.2934 7.95718C10.2934 8.90639 9.57979 9.66589 8.43323 9.66589ZM21.9324 20.9082H18.645V15.6164C18.645 14.2865 18.1689 13.3795 16.9793 13.3795C16.0711 13.3795 15.5301 13.9913 15.2924 14.5819C15.2055 14.7933 15.1843 15.0887 15.1843 15.3843V20.9082H11.8966C11.8966 20.9082 11.9397 11.9446 11.8966 11.0166H15.1843V12.4171C15.6212 11.7431 16.4029 10.7844 18.1473 10.7844C20.3104 10.7844 21.9324 12.1982 21.9324 15.2364V20.9082Z" fill="#E0ECFF" fill-opacity="0.8"/>
</svg>
