<svg width="28" height="28" viewBox="0 0 28 28" fill="none" xmlns="http://www.w3.org/2000/svg">
<path d="M14 0.5C6.5453 0.5 0.5 6.5453 0.5 14C0.5 21.4547 6.5453 27.5 14 27.5C21.4547 27.5 27.5 21.4547 27.5 14C27.5 6.5453 21.4547 0.5 14 0.5ZM20.1639 11.0259C20.1699 11.1587 20.1728 11.2922 20.1728 11.4263C20.1728 15.5209 17.0561 20.2424 11.3565 20.2426C9.60657 20.2426 7.97819 19.7297 6.60689 18.8507C6.84934 18.8794 7.09612 18.8936 7.34599 18.8936C8.79784 18.8936 10.1339 18.3984 11.1946 17.5672C9.8381 17.5421 8.69443 16.6462 8.29974 15.415C8.48864 15.4512 8.68289 15.471 8.88209 15.471C9.16492 15.471 9.43889 15.4329 9.69926 15.3618C8.28141 15.078 7.21333 13.8249 7.21333 12.3244C7.21333 12.3104 7.21333 12.2979 7.21375 12.2849C7.63129 12.5171 8.10879 12.6567 8.61718 12.6724C7.78517 12.1172 7.23826 11.1682 7.23826 10.0931C7.23826 9.52541 7.39172 8.99353 7.65787 8.53561C9.18593 10.4106 11.4696 11.6436 14.0449 11.7732C13.9918 11.5462 13.9644 11.3097 13.9644 11.0667C13.9644 9.35608 15.3521 7.9683 17.0633 7.9683C17.9547 7.9683 18.7597 8.34506 19.3251 8.94739C20.0311 8.80814 20.694 8.55023 21.2928 8.1953C21.0611 8.91855 20.57 9.52541 19.9301 9.90917C20.557 9.83419 21.1544 9.66795 21.7095 9.42117C21.2949 10.0427 20.769 10.5885 20.1639 11.0259Z" fill="#E0ECFF" fill-opacity="0.8"/>
</svg>
