<svg viewBox="0 0 76 85" version="1.1" xmlns="http://www.w3.org/2000/svg" xml:space="preserve" style="fill-rule:evenodd;clip-rule:evenodd;stroke-linejoin:round;stroke-miterlimit:2">
  <path style="fill:none" d="M17.389 0h40.666v84.279H17.389z"/>
  <path d="M42.796 44.251c1.278 1.318 2.9 2.831 4.779 4.224 1.813 2.358 3.522 5.113 4.656 8.163.84 2.284 1.371 4.744 1.371 7.323 0 8.752-7.132 15.883-15.884 15.883-5.306 0-10.017-2.616-12.903-6.63 1.718-.28 3.399-.841 4.968-1.686 1.999 2.099 4.818 3.409 7.935 3.409 6.056 0 10.962-4.921 10.962-10.962 0-2.711-.839-6.88-4.626-11.978-.457-.619-.958-1.238-1.503-1.886-.947-1.117-1.894-2.1-2.754-2.932.02-1.092.08-2.045.146-2.797.768-.061 1.741-.116 2.853-.131zm10.152-28.463c.425 1.432.654 2.948.654 4.516 0 2.563-.516 5.024-1.371 7.322-1.134 3.065-2.843 5.82-4.656 8.178-1.896 1.406-3.537 2.935-4.821 4.26-1.095-.021-2.053-.08-2.811-.146-.064-.761-.118-1.728-.131-2.839 1.321-1.28 2.842-2.909 4.242-4.797 2.49-3.359 4.626-7.529 4.626-11.978 0-1.151-.178-2.262-.509-3.306 1.496-.77 3.134-1.174 4.777-1.21zm-2.313-4.719C47.752 7.047 43.039 4.42 37.718 4.42c-8.766 0-15.883 7.132-15.883 15.884 0 2.578.53 5.039 1.37 7.322 1.135 3.05 2.844 5.82 4.656 8.178 1.89 1.401 3.52 2.923 4.8 4.245 1.108-.014 2.073-.067 2.832-.131.067-.762.127-1.725.147-2.828-1.321-1.281-2.844-2.914-4.257-4.808-2.505-3.359-4.627-7.529-4.627-11.978 0-6.041 4.921-10.962 10.962-10.962 3.12 0 5.94 1.312 7.939 3.413 1.572-.846 3.257-1.407 4.978-1.686zM22.497 68.506c-.43-1.44-.662-2.966-.662-4.545 0-2.564.516-5.025 1.37-7.323 1.135-3.05 2.844-5.805 4.656-8.163.619-.457 1.238-.958 1.886-1.503 1.109-.94 2.087-1.881 2.915-2.737 1.1.021 2.06.081 2.817.147.06.764.115 1.729.13 2.833-1.318 1.278-2.832 2.901-4.226 4.782-2.49 3.359-4.627 7.529-4.627 11.978 0 1.158.181 2.274.515 3.322-1.495.77-3.131 1.173-4.774 1.209z" style="fill:url(#_Linear1)"/>
  <path d="M58.249 42.184c2.224 1.017 4.33 2.387 6.142 4.213 6.173 6.218 6.158 16.296-.03 22.484-3.742 3.728-8.885 5.201-13.747 4.421 1.032-1.415 1.827-3.006 2.343-4.715 2.873.059 5.761-1.002 7.942-3.183 4.287-4.258 4.302-11.212.029-15.5-3.138-3.168-7.603-4.612-11.743-5.231-2.313-.353-4.538-.442-6.365-.412-1.105.015-2.078.074-2.844.132-.059.752-.118 1.71-.132 2.8-.03 1.842.044 4.067.383 6.409.604 4.14 2.033 8.605 5.171 11.758.84.84 1.783 1.518 2.785 2.033-.516 1.592-1.4 3.035-2.549 4.214-1.341-.722-2.593-1.65-3.728-2.785-1.827-1.812-3.182-3.934-4.199-6.158-.006-.014-.013-.028-.019-.042-.005.01-.009.02-.014.031-1.017 2.224-2.387 4.331-4.214 6.144-6.218 6.188-16.296 6.158-22.469-.045-6.174-6.203-6.159-16.281.059-22.454 1.812-1.827 3.933-3.183 6.158-4.199.007-.004.014-.007.021-.01-2.22-1.016-4.323-2.384-6.131-4.208-6.189-6.203-6.159-16.281.044-22.469 3.742-3.728 8.884-5.201 13.747-4.421-1.032 1.415-1.827 3.006-2.343 4.715-2.873-.059-5.761 1.002-7.942 3.183-4.287 4.258-4.302 11.212-.029 15.5 1.9 1.93 5.451 4.288 11.728 5.231.751.118 1.547.206 2.387.28 1.444.117 2.799.147 3.993.132 1.097-.014 2.048-.073 2.812-.131.176-2.036.306-5.489-.238-9.207.003-.022.006-.045.009-.068-.609-4.122-2.04-8.556-5.162-11.693-.839-.84-1.782-1.518-2.784-2.033.515-1.591 1.399-3.035 2.549-4.214 1.34.707 2.593 1.635 3.727 2.77 1.82 1.805 3.172 3.917 4.187 6.131 1.015-2.208 2.379-4.298 4.193-6.098 6.218-6.188 16.296-6.159 22.47.044 6.188 6.203 6.158 16.281-.045 22.455-1.81 1.825-3.93 3.18-6.152 4.196zm-9.061-2.505c4.134-.606 8.589-2.036 11.736-5.168 4.288-4.273 4.303-11.228.03-15.501-4.258-4.287-11.213-4.302-15.5-.029-1.917 1.888-4.256 5.403-5.212 11.6.005.037.01.073.014.11-.118.751-.206 1.547-.28 2.387-.118 1.444-.147 2.799-.132 3.993.014 1.119.073 2.077.132 2.843.302.03.636.057 1 .08.26.016.535.03.822.042.315.012.647.021.992.026 1.828.029 4.067-.045 6.395-.383h.003zM14.483 65.29c4.258 4.273 11.212 4.302 15.5.029 3.153-3.138 4.611-7.602 5.216-11.728.559-3.713.442-7.175.279-9.209-2.018-.176-5.481-.309-9.208.236-4.141.604-8.605 2.033-11.758 5.172-4.288 4.258-4.302 11.212-.029 15.5z" style="fill:url(#_Radial2)"/>
  <path d="M8.325 34.198c-.84-1.577-1.415-3.256-1.68-4.98C2.623 32.12 0 36.821 0 42.139c0 5.29 2.593 9.975 6.571 12.863.28-1.724.84-3.418 1.695-4.98-2.063-1.989-3.345-4.788-3.345-7.868 0-3.138 1.312-5.952 3.404-7.956zm60.542-4.921c-.28 1.724-.84 3.418-1.695 4.995 2.063 1.989 3.345 4.788 3.345 7.867 0 3.124-1.311 5.938-3.404 7.942.84 1.562 1.415 3.256 1.68 4.98 4.022-2.888 6.645-7.603 6.645-12.907s-2.593-9.989-6.571-12.877zm-9.312 1.9c1.193 0 2.328.192 3.403.546.767-1.503 1.164-3.139 1.194-4.789-1.459-.442-2.991-.678-4.597-.678-8.354 0-15.5 5.54-19.744 9.769-.81.81-1.517 1.562-2.092 2.225-.575-.663-1.282-1.415-2.077-2.21-4.229-4.229-11.39-9.784-19.759-9.784-1.576 0-3.094.236-4.523.663.029 1.65.442 3.286 1.208 4.774 1.046-.339 2.166-.516 3.315-.516 6.955 0 13.217 5.201 16.768 8.87.766.796 1.414 1.518 1.915 2.107-.486.575-1.12 1.297-1.886 2.078-.825.854-1.812 1.812-2.932 2.755-5.953 5.068-10.83 6.129-13.865 6.129-1.193 0-2.328-.191-3.403-.545-.766 1.503-1.164 3.139-1.194 4.789 1.459.442 2.991.677 4.597.677 8.354 0 15.5-5.54 19.729-9.753.81-.811 1.518-1.577 2.107-2.24.575.663 1.282 1.414 2.078 2.21 4.228 4.229 11.389 9.783 19.758 9.783 1.576 0 3.094-.235 4.523-.663-.029-1.65-.442-3.285-1.208-4.773-1.046.339-2.166.515-3.315.515-6.94 0-13.202-5.186-16.767-8.855-.767-.795-1.415-1.517-1.916-2.107.486-.574 1.135-1.296 1.901-2.092 3.551-3.669 9.827-8.885 16.782-8.885z" style="fill:#2475f5;fill-rule:nonzero"/>
  <path d="M34.566 42.14c1.046 1.296 2.092 2.593 3.153 3.89-.295.339-.604.677-.928 1.016-.545.59-1.105 1.164-1.636 1.709-1.031-1.296-2.048-2.607-3.079-3.904.574-.575 1.149-1.179 1.738-1.827.266-.309.516-.589.752-.884z" style="fill:url(#_Linear3);fill-rule:nonzero"/>
  <path d="M40.872 42.14c-1.046-1.297-2.107-2.594-3.153-3.89.368-.427.766-.855 1.193-1.297.442-.456.869-.898 1.311-1.326 1.135 1.194 2.255 2.387 3.389 3.581-.648.633-1.311 1.326-1.974 2.062-.265.295-.516.59-.766.87z" style="fill:url(#_Linear4);fill-rule:nonzero"/>
  <path d="M17.357 31.251c-.487-.045-.973-.074-1.474-.074-1.149 0-2.269.177-3.315.516-.766-1.503-1.179-3.124-1.208-4.774 1.134-.339 2.328-.56 3.565-.634l2.432 4.966z" style="fill:url(#_Linear5);fill-rule:nonzero"/>
  <path d="M8.324 34.198c-1.001.943-1.812 2.077-2.401 3.344l-2.549-5.201c.928-1.193 2.033-2.24 3.256-3.124.295 1.724.855 3.419 1.694 4.981z" style="fill:url(#_Linear6);fill-rule:nonzero"/>
  <path d="M58.14 31.251c.442-.059.943-.089 1.473-.074 1.341.015 2.476.265 3.345.545.309-.604.648-1.4.884-2.387.221-.928.295-1.753.295-2.387-.516-.162-1.09-.324-1.754-.442-.663-.118-1.281-.191-1.812-.221l-2.431 4.966z" style="fill:url(#_Linear7);fill-rule:nonzero"/>
  <path d="M67.173 34.257c.398.383.854.884 1.296 1.517.472.663.796 1.282 1.047 1.813.854-1.724 1.723-3.448 2.578-5.187-.398-.515-.884-1.061-1.459-1.635-.618-.604-1.223-1.091-1.768-1.488-.118.736-.309 1.606-.633 2.549-.324.943-.693 1.768-1.061 2.431z" style="fill:url(#_Linear8);fill-rule:nonzero"/>
  <path d="M17.21 53.028c-.442.059-.928.088-1.473.073-1.312-.014-2.417-.265-3.242-.545-.294.575-.633 1.341-.869 2.284-.25.973-.324 1.842-.324 2.505.501.147 1.075.295 1.709.412.648.118 1.238.192 1.768.236l2.431-4.965z" style="fill:url(#_Linear9);fill-rule:nonzero"/>
  <path d="M8.266 50.022c-.398-.398-.855-.899-1.312-1.532-.486-.678-.825-1.312-1.061-1.857-.854 1.724-1.724 3.463-2.578 5.187.383.501.854 1.061 1.429 1.635.648.634 1.282 1.149 1.842 1.532.118-.766.324-1.679.678-2.681.294-.899.663-1.665 1.001-2.284z" style="fill:url(#_Linear10);fill-rule:nonzero"/>
  <path d="M58.14 53.027c.442.059.943.088 1.473.073 1.297-.014 2.402-.25 3.257-.501.294.575.633 1.341.869 2.284.25.973.309 1.827.309 2.476-.486.147-1.046.294-1.665.412-.663.118-1.281.192-1.812.221l-2.431-4.965z" style="fill:url(#_Linear11);fill-rule:nonzero"/>
  <path d="M67.114 50.081c.427-.397.913-.928 1.385-1.591.442-.619.766-1.208 1.002-1.709.854 1.709 1.724 3.433 2.578 5.142-.398.501-.884 1.061-1.458 1.636-.634.618-1.253 1.119-1.813 1.517-.118-.722-.294-1.562-.604-2.475-.339-1.002-.722-1.842-1.09-2.52z" style="fill:url(#_Linear12);fill-rule:nonzero"/>
  <defs>
    <linearGradient id="_Linear1" x1="0" y1="0" x2="1" y2="0" gradientUnits="userSpaceOnUse" gradientTransform="rotate(90 16.64897 21.06943) scale(75.4234)">
      <stop offset="0" style="stop-color:#2475f5;stop-opacity:.25"/>
      <stop offset=".5" style="stop-color:#2475f5;stop-opacity:.2"/>
      <stop offset="1" style="stop-color:#2475f5;stop-opacity:.25"/>
    </linearGradient>
    <linearGradient id="_Linear3" x1="0" y1="0" x2="1" y2="0" gradientUnits="userSpaceOnUse" gradientTransform="matrix(4.5157 -4.6596 4.6596 4.5157 33.6688 46.5474)">
      <stop offset="0" style="stop-color:#571939;stop-opacity:0"/>
      <stop offset="1" style="stop-color:#571939;stop-opacity:1"/>
    </linearGradient>
    <linearGradient id="_Linear4" x1="0" y1="0" x2="1" y2="0" gradientUnits="userSpaceOnUse" gradientTransform="matrix(-4.5685 4.7363 -4.7363 -4.5685 41.879 37.6097)">
      <stop offset="0" style="stop-color:#551938;stop-opacity:0"/>
      <stop offset="1" style="stop-color:#561939;stop-opacity:1"/>
    </linearGradient>
    <linearGradient id="_Linear5" x1="0" y1="0" x2="1" y2="0" gradientUnits="userSpaceOnUse" gradientTransform="matrix(5.8643 -1.2535 1.2535 5.8643 8.5904 30.2887)">
      <stop offset="0" style="stop-color:#000;stop-opacity:.5"/>
      <stop offset=".14" style="stop-color:#000;stop-opacity:.5"/>
      <stop offset="1" style="stop-color:#000;stop-opacity:0"/>
    </linearGradient>
    <linearGradient id="_Linear6" x1="0" y1="0" x2="1" y2="0" gradientUnits="userSpaceOnUse" gradientTransform="rotate(134.928 -1.86661158 17.14040609) scale(4.9448)">
      <stop offset="0" style="stop-color:#000;stop-opacity:.35"/>
      <stop offset="1" style="stop-color:#000;stop-opacity:0"/>
    </linearGradient>
    <linearGradient id="_Linear7" x1="0" y1="0" x2="1" y2="0" gradientUnits="userSpaceOnUse" gradientTransform="matrix(-5.8936 -1.2598 1.2598 -5.8936 66.9499 30.2993)">
      <stop offset="0" style="stop-color:#000;stop-opacity:.5"/>
      <stop offset=".14" style="stop-color:#000;stop-opacity:.5"/>
      <stop offset="1" style="stop-color:#000;stop-opacity:0"/>
    </linearGradient>
    <linearGradient id="_Linear8" x1="0" y1="0" x2="1" y2="0" gradientUnits="userSpaceOnUse" gradientTransform="rotate(45.071 -3.63815885 95.50687892) scale(4.9052)">
      <stop offset="0" style="stop-color:#000;stop-opacity:.35"/>
      <stop offset="1" style="stop-color:#000;stop-opacity:0"/>
    </linearGradient>
    <linearGradient id="_Linear9" x1="0" y1="0" x2="1" y2="0" gradientUnits="userSpaceOnUse" gradientTransform="matrix(5.7959 1.2389 -1.2389 5.7959 8.5427 53.9928)">
      <stop offset="0" style="stop-color:#000;stop-opacity:.5"/>
      <stop offset=".14" style="stop-color:#000;stop-opacity:.5"/>
      <stop offset="1" style="stop-color:#000;stop-opacity:0"/>
    </linearGradient>
    <linearGradient id="_Linear10" x1="0" y1="0" x2="1" y2="0" gradientUnits="userSpaceOnUse" gradientTransform="matrix(-3.4934 -3.5022 3.5022 -3.4934 8.896 53.6344)">
      <stop offset="0" style="stop-color:#000;stop-opacity:.35"/>
      <stop offset="1" style="stop-color:#000;stop-opacity:0"/>
    </linearGradient>
    <linearGradient id="_Linear11" x1="0" y1="0" x2="1" y2="0" gradientUnits="userSpaceOnUse" gradientTransform="matrix(-5.7979 1.2393 -1.2393 -5.7979 66.8164 54.004)">
      <stop offset="0" style="stop-color:#000;stop-opacity:.5"/>
      <stop offset=".14" style="stop-color:#000;stop-opacity:.5"/>
      <stop offset="1" style="stop-color:#000;stop-opacity:0"/>
    </linearGradient>
    <linearGradient id="_Linear12" x1="0" y1="0" x2="1" y2="0" gradientUnits="userSpaceOnUse" gradientTransform="matrix(3.473 -3.4817 3.4817 3.473 66.5058 53.7184)">
      <stop offset="0" style="stop-color:#000;stop-opacity:.35"/>
      <stop offset="1" style="stop-color:#000;stop-opacity:0"/>
    </linearGradient>
    <radialGradient id="_Radial2" cx="0" cy="0" r="1" gradientUnits="userSpaceOnUse" gradientTransform="matrix(-26.9684 25.3995 -25.4563 -27.0287 36.8188 40.5326)">
      <stop offset="0" style="stop-color:#2475f5;stop-opacity:.3"/>
      <stop offset=".61" style="stop-color:#2475f5;stop-opacity:.45"/>
      <stop offset="1" style="stop-color:#2475f5;stop-opacity:.45"/>
    </radialGradient>
  </defs>
</svg>