<svg width="24" height="24" viewBox="0 0 24 24" fill="none" xmlns="http://www.w3.org/2000/svg">
<path d="M12.0035 22.7095C11.7165 22.7095 11.432 22.6345 11.1805 22.4895L8.5605 20.938C8.169 20.719 8.36 20.6415 8.489 20.597C9.011 20.4145 9.1165 20.373 9.6735 20.0565C9.732 20.023 9.8085 20.035 9.8685 20.0705L11.8815 21.265C11.954 21.3045 12.0575 21.3045 12.1245 21.265L19.973 16.7345C20.0455 16.693 20.093 16.609 20.093 16.5225V7.46603C20.093 7.37553 20.046 7.29503 19.9715 7.25003L12.1265 2.72303C12.054 2.68003 11.9575 2.68003 11.885 2.72303L4.041 7.24953C3.965 7.29253 3.9165 7.37703 3.9165 7.46353V16.5205C3.9165 16.607 3.9635 16.6895 4.0385 16.7305L6.188 17.972C7.355 18.5555 8.068 17.868 8.068 17.1765V8.23803C8.068 8.11053 8.168 8.01203 8.296 8.01203H9.29C9.414 8.01203 9.516 8.11003 9.516 8.23803V17.181C9.516 18.737 8.6675 19.631 7.192 19.631C6.738 19.631 6.3805 19.631 5.3825 19.14L3.3235 17.9535C2.8145 17.6585 2.5 17.108 2.5 16.521V7.46403C2.5 6.87453 2.8145 6.32453 3.323 6.03353L11.18 1.50103C11.677 1.22003 12.337 1.22003 12.8305 1.50103L20.6775 6.03553C21.1835 6.32803 21.5 6.87653 21.5 7.46603V16.523C21.5 17.1105 21.1835 17.6585 20.677 17.9535L12.83 22.4855C12.5785 22.631 12.2935 22.7055 12.003 22.7055" fill="#F5F9FF" fill-opacity="0.95"/>
<path d="M14.428 16.4685C10.994 16.4685 10.274 14.892 10.274 13.57C10.274 13.4445 10.3755 13.344 10.5015 13.344H11.5155C11.6275 13.344 11.722 13.4255 11.7395 13.536C11.8925 14.569 12.3485 15.09 14.425 15.09C16.079 15.09 16.7825 14.7165 16.7825 13.839C16.7825 13.334 16.582 12.959 14.0125 12.7075C11.863 12.4955 10.535 12.022 10.535 10.303C10.535 8.71949 11.871 7.77649 14.1085 7.77649C16.6215 7.77649 17.867 8.64899 18.024 10.523C18.03 10.588 18.0065 10.6505 17.963 10.698C17.92 10.743 17.859 10.7705 17.796 10.7705H16.7765C16.6705 10.7705 16.578 10.696 16.5565 10.5935C16.311 9.50699 15.7175 9.15949 14.1045 9.15949C12.299 9.15949 12.089 9.78799 12.089 10.2595C12.089 10.831 12.3365 10.998 14.7725 11.3205C17.185 11.6405 18.3305 12.0925 18.3305 13.788C18.3305 15.497 16.904 16.4775 14.417 16.4775" fill="#F5F9FF" fill-opacity="0.95"/>
</svg>
